<?xml version="1.0" encoding="iso-8859-1"?>
<!-- Generator: Adobe Illustrator 19.0.0, SVG Export Plug-In . SVG Version: 6.00 Build 0)  -->
<svg version="1.1" id="Capa_1" xmlns="http://www.w3.org/2000/svg" xmlns:xlink="http://www.w3.org/1999/xlink" x="0px" y="0px"
	 viewBox="0 0 512 512" style="enable-background:new 0 0 512 512;" xml:space="preserve">
<g>
	<g transform="translate(1 1)">
		<path style="fill:#F57C00;" d="M502.467,226.328v57.344c-0.009,8.137-5.759,15.136-13.739,16.725l-26.539,5.291
			c-6.303,25.878-17.419,50.34-32.768,72.107l19.797,29.781c2.232,3.392,1.768,7.887-1.109,10.752l-38.315,38.315
			c-2.865,2.877-7.36,3.341-10.752,1.109l-9.557-6.4l33.024-33.024c2.878-2.865,3.341-7.36,1.109-10.752l-19.797-29.781
			c15.349-21.767,26.465-46.228,32.768-72.107l26.539-5.291c7.98-1.589,13.729-8.589,13.739-16.725v-57.344
			c-0.009-8.137-5.759-15.136-13.739-16.725l-26.539-5.291c-6.303-25.878-17.419-50.34-32.768-72.107l19.797-29.781
			c2.232-3.392,1.768-7.887-1.109-10.752l-33.024-33.024l9.557-6.4c3.392-2.232,7.887-1.769,10.752,1.109l38.315,38.315
			c2.878,2.865,3.341,7.36,1.109,10.752l-19.797,29.781c15.349,21.767,26.465,46.228,32.768,72.107l26.539,5.291
			C496.708,211.192,502.457,218.191,502.467,226.328z"/>
		<path style="fill:#FF9801;" d="M476.867,226.328v57.344c-0.009,8.137-5.759,15.136-13.739,16.725l-26.539,5.291
			c-6.303,25.878-17.419,50.34-32.768,72.107l19.797,29.781c2.232,3.392,1.768,7.887-1.109,10.752l-33.024,33.024l-22.357-14.848
			c-4.523,2.816-9.131,5.376-13.909,7.765c-19.886,10.441-41.323,17.615-63.488,21.248l-6.059,30.123
			c-0.804,3.978-4.304,6.835-8.363,6.827h-40.619c-4.058,0.008-7.558-2.849-8.363-6.827l-6.059-30.123
			c-31.928-5.246-62.229-17.741-88.576-36.523l-12.715,8.448l-18.517,12.373c-3.371,2.259-7.868,1.831-10.752-1.024l-5.291-5.291
			l-23.381-23.467c-2.882-2.863-3.346-7.361-1.109-10.752l20.821-31.232c-18.616-26.316-31.017-56.515-36.267-88.32l-30.123-6.059
			c-3.978-0.805-6.835-4.304-6.827-8.363v-40.619c-0.008-4.058,2.849-7.558,6.827-8.363l30.123-6.059
			c4.106-24.643,12.48-48.38,24.747-70.144l-16.128-24.32c-4.544-6.751-3.648-15.778,2.133-21.504l40.533-40.533
			c5.726-5.782,14.753-6.677,21.504-2.133l9.643,6.4l12.032,8.021c22.596-14.726,47.792-25.007,74.24-30.293l6.315-31.403
			c0.804-3.978,4.304-6.835,8.363-6.827h54.272c4.058-0.009,7.559,2.849,8.363,6.827l6.315,31.403
			c19.657,3.89,38.654,10.586,56.405,19.883c4.779,2.389,9.387,5.035,13.909,7.851l22.357-14.848l33.024,33.024
			c2.878,2.865,3.341,7.36,1.109,10.752l-19.797,29.781c15.349,21.767,26.465,46.228,32.768,72.107l26.539,5.291
			C471.108,211.192,476.857,218.191,476.867,226.328z"/>
		<g>
			<circle style="fill:#FF5722;" cx="173.933" cy="156.867" r="46.933"/>
			<circle style="fill:#FF5722;" cx="370.2" cy="199.533" r="46.933"/>
			<circle style="fill:#FF5722;" cx="161.133" cy="314.733" r="59.733"/>
			<circle style="fill:#FF5722;" cx="374.467" cy="331.8" r="25.6"/>
			<circle style="fill:#FF5722;" cx="280.6" cy="263.533" r="25.6"/>
			<circle style="fill:#FF5722;" cx="289.133" cy="109.933" r="25.6"/>
			<circle style="fill:#FF5722;" cx="263.533" cy="400.067" r="25.6"/>
		</g>
	</g>
	<g>
		<path d="M491.425,202.221l-21.275-4.254c-6.229-23.069-16.179-44.968-29.458-64.833l16.625-24.933
			c4.496-6.774,3.604-15.777-2.133-21.538L416.8,48.275c-5.766-5.725-14.76-6.612-21.533-2.125l-27.383,18.258
			c-19.542-11.456-40.736-19.822-62.833-24.804l-5.175-25.892C298.258,5.746,291.262,0.016,283.133,0h-54.267
			c-8.131,0.017-15.129,5.751-16.742,13.721L206.95,39.6c-23.647,5.332-46.247,14.544-66.883,27.262L123.017,55.5
			c-10.16-6.739-23.66-5.402-32.3,3.2l-40.55,40.55c-8.602,8.642-9.939,22.142-3.2,32.304l13.317,19.979
			c-10.507,19.604-17.975,40.691-22.15,62.538l-24.417,4.883C5.749,220.565,0.016,227.559,0,235.688v40.625
			c0.021,8.127,5.752,15.119,13.717,16.733l24.417,4.883c5.612,29.001,16.944,56.595,33.333,81.171l-17.642,26.45
			c-4.481,6.775-3.586,15.766,2.142,21.525L84.692,455.8c5.76,5.734,14.76,6.626,21.533,2.133l26.383-17.592
			c24.649,16.493,52.348,27.89,81.467,33.521l4.883,24.408c1.601,7.975,8.6,13.717,16.734,13.729h40.617
			c8.13-0.012,15.126-5.747,16.733-13.717l4.883-24.421c24.651-4.69,48.314-13.576,69.958-26.271l27.392,18.267
			c6.78,4.471,15.766,3.577,21.533-2.142l38.375-38.379c5.737-5.759,6.629-14.76,2.133-21.533l-16.625-24.937
			c13.279-19.866,23.229-41.765,29.458-64.833l21.267-4.258c11.954-2.413,20.558-12.905,20.583-25.1v-57.35
			C511.976,215.132,503.376,204.638,491.425,202.221z M494.933,284.675c-0.008,4.064-2.875,7.561-6.858,8.367l-26.533,5.308
			c-3.251,0.65-5.832,3.125-6.617,6.346c-6.051,24.84-16.742,48.313-31.508,69.184c-2.033,2.883-2.083,6.72-0.125,9.654
			l19.825,29.738l-38.383,38.379l-31.883-21.258c-2.781-1.849-6.384-1.909-9.225-0.154c-22.691,14.08-47.942,23.535-74.3,27.821
			c-3.507,0.575-6.292,3.262-6.992,6.746l-6.026,30.129h-40.617l-6.025-30.129c-0.7-3.484-3.484-6.171-6.992-6.746
			c-30.631-5.069-59.71-17.031-85.042-34.983c-2.884-2.047-6.732-2.103-9.675-0.142l-31.2,20.8l-28.725-28.725l20.833-31.246
			c1.96-2.938,1.907-6.78-0.133-9.663c-17.934-25.222-29.837-54.226-34.792-84.775c-0.576-3.507-3.264-6.291-6.75-6.987
			l-30.125-6.025v-40.625l30.125-6.025c3.485-0.697,6.174-3.48,6.75-6.987c3.863-23.683,11.902-46.491,23.742-67.362
			c1.584-2.803,1.458-6.257-0.325-8.937l-16.191-24.292c-2.247-3.387-1.802-7.887,1.067-10.767l40.55-40.546
			c2.875-2.876,7.381-3.325,10.766-1.071l21.658,14.437c2.836,1.891,6.526,1.913,9.383,0.054
			c21.689-14.142,45.886-23.999,71.283-29.037c3.385-0.672,6.032-3.316,6.708-6.7l6.283-31.388l54.275-0.004l6.275,31.392
			c0.674,3.382,3.318,6.026,6.7,6.7c23.918,4.743,46.786,13.756,67.509,26.608c2.841,1.755,6.444,1.695,9.225-0.154l31.892-21.258
			l38.375,38.379l-19.825,29.738c-1.958,2.934-1.908,6.771,0.125,9.654c14.767,20.871,25.457,44.343,31.508,69.183
			c0.785,3.221,3.365,5.696,6.617,6.346l26.533,5.304c3.984,0.808,6.85,4.306,6.858,8.371V284.675z"/>
		<path d="M174.933,213.333c30.633,0,55.467-24.833,55.467-55.467S205.567,102.4,174.933,102.4s-55.467,24.833-55.467,55.467
			C119.502,188.485,144.315,213.298,174.933,213.333L174.933,213.333z M174.933,119.467c21.208,0,38.4,17.192,38.4,38.4
			s-17.192,38.4-38.4,38.4s-38.4-17.192-38.4-38.4C136.556,136.669,153.735,119.49,174.933,119.467z"/>
		<path d="M371.2,145.067c-30.633,0-55.467,24.833-55.467,55.467S340.567,256,371.2,256s55.467-24.833,55.467-55.467
			C426.631,169.915,401.819,145.102,371.2,145.067z M371.2,238.933c-15.531,0-29.533-9.356-35.477-23.705
			c-5.944-14.349-2.658-30.866,8.324-41.848c10.982-10.982,27.499-14.268,41.848-8.324s23.705,19.946,23.705,35.477
			C409.577,221.732,392.398,238.91,371.2,238.933L371.2,238.933z"/>
		<path d="M162.133,247.467c-37.703,0-68.267,30.564-68.267,68.267S124.431,384,162.133,384s68.267-30.564,68.267-68.267
			C230.357,278.049,199.818,247.51,162.133,247.467L162.133,247.467z M162.133,366.933c-28.277,0-51.2-22.923-51.2-51.2
			c0-28.277,22.923-51.2,51.2-51.2s51.2,22.923,51.2,51.2C213.302,343.997,190.398,366.902,162.133,366.933z"/>
		<path d="M375.467,298.667c-18.851,0-34.133,15.282-34.133,34.133s15.282,34.133,34.133,34.133
			c18.851,0,34.133-15.282,34.133-34.133C409.58,313.957,394.31,298.687,375.467,298.667z M375.467,349.867
			c-9.426,0-17.067-7.641-17.067-17.067s7.641-17.067,17.067-17.067c9.426,0,17.067,7.641,17.067,17.067
			C392.523,342.221,384.888,349.856,375.467,349.867L375.467,349.867z"/>
		<path d="M281.6,230.4c-18.851,0-34.133,15.282-34.133,34.133s15.282,34.133,34.133,34.133c18.851,0,34.133-15.282,34.133-34.133
			C315.713,245.69,300.443,230.42,281.6,230.4L281.6,230.4z M281.6,281.6c-9.426,0-17.067-7.641-17.067-17.067
			c0-9.426,7.641-17.067,17.067-17.067s17.067,7.641,17.067,17.067C298.656,273.955,291.021,281.589,281.6,281.6z"/>
		<path d="M290.133,145.067c18.851,0,34.133-15.282,34.133-34.133S308.985,76.8,290.133,76.8S256,92.082,256,110.933
			C256.02,129.776,271.29,145.047,290.133,145.067L290.133,145.067z M290.133,93.867c9.426,0,17.067,7.641,17.067,17.067
			S299.559,128,290.133,128c-9.426,0-17.067-7.641-17.067-17.067C273.077,101.512,280.712,93.877,290.133,93.867z"/>
		<path d="M264.533,366.933c-18.851,0-34.133,15.282-34.133,34.133c0,18.851,15.282,34.133,34.133,34.133
			s34.133-15.282,34.133-34.133C298.647,382.224,283.376,366.953,264.533,366.933z M264.533,418.133
			c-9.426,0-17.067-7.641-17.067-17.067S255.108,384,264.533,384c9.426,0,17.067,7.641,17.067,17.067
			C281.589,410.488,273.955,418.123,264.533,418.133z"/>
	</g>
</g>
<g>
</g>
<g>
</g>
<g>
</g>
<g>
</g>
<g>
</g>
<g>
</g>
<g>
</g>
<g>
</g>
<g>
</g>
<g>
</g>
<g>
</g>
<g>
</g>
<g>
</g>
<g>
</g>
<g>
</g>
</svg>
